<?xml version="1.0" standalone="no"?><!DOCTYPE svg PUBLIC "-//W3C//DTD SVG 1.1//EN" "http://www.w3.org/Graphics/SVG/1.1/DTD/svg11.dtd"><svg t="1607435089656" class="icon" viewBox="0 0 1025 1024" version="1.1" xmlns="http://www.w3.org/2000/svg" p-id="1141" xmlns:xlink="http://www.w3.org/1999/xlink" width="200.1953125" height="200"><defs><style type="text/css"></style></defs><path d="M905.632 845.984l22.464 95.072-105.76-53.6a355.744 355.744 0 0 1-113.088 18.496c-174.24 0-315.456-123.104-315.456-274.88s141.312-274.88 315.552-274.88 315.456 123.104 315.456 274.944c-0.064 87.04-46.656 164.512-119.136 214.816z m-287.424-342.912c-24 0-43.36 19.904-43.36 44.48s19.456 44.48 43.36 44.48 43.36-19.904 43.36-44.48c0-24.576-19.456-44.48-43.36-44.48z m200.992 0c-24 0-43.36 19.904-43.36 44.48s19.456 44.48 43.36 44.48c24 0 43.36-19.904 43.36-44.48s-19.456-44.48-43.36-44.48z m-441.056 128.736c0 32.416 6.432 63.424 17.696 92.512-7.52 0.352-15.072 1.024-22.688 1.024-47.264 0-92.224-7.968-133.792-21.856l-125.088 63.424 26.56-112.416c-85.728-59.744-140.8-151.328-140.8-254.304 0-179.552 167.072-325.184 373.088-325.184 184.48 0 337.248 116.8 367.328 270.112a386.016 386.016 0 0 0-31.808-1.376c-182.56 0-330.528 129.024-330.528 288.096zM246.624 236.48c-28.384 0-51.36 23.552-51.36 52.576s22.976 52.576 51.36 52.576 51.36-23.552 51.36-52.576c0-29.12-22.976-52.576-51.36-52.576z m250.144 0c-28.384 0-51.36 23.552-51.36 52.576s22.976 52.576 51.36 52.576 51.36-23.552 51.36-52.576c0-29.12-22.976-52.576-51.36-52.576z" p-id="1142"></path></svg>